<?xml version="1.0" encoding="UTF-8" standalone="no"?>
<svg width="35px" height="35px" viewBox="0 0 35 35" version="1.1" xmlns="http://www.w3.org/2000/svg" xmlns:xlink="http://www.w3.org/1999/xlink">
    <!-- Generator: Sketch 39.1 (31720) - http://www.bohemiancoding.com/sketch -->
    <title>Combined Shape</title>
    <desc>Created with Sketch.</desc>
    <defs></defs>
    <g id="Symbols" stroke="none" stroke-width="1" fill="none" fill-rule="evenodd">
        <g id="close-icon--white" fill="#FFFFFF">
            <g id="x">
                <path d="M17.500228,15.6431964 L2.81809186,0.961060218 C2.23186062,0.374828975 1.28189675,0.374612573 0.696110308,0.960399011 C0.106239875,1.55026944 0.110619903,2.49622895 0.696771515,3.08238056 L15.3789077,17.7645167 L0.696469404,32.446955 C0.110226911,33.0331975 0.110001392,33.9831705 0.69578783,34.5689569 C1.28565826,35.1588274 2.23162689,35.1544382 2.81778975,34.5682754 L17.500228,19.8858371 L32.1819081,34.5675172 C32.7681394,35.1537484 33.7181033,35.1539648 34.3038897,34.5681784 C34.8937601,33.978308 34.8893801,33.0323485 34.3032285,32.4461968 L19.6215484,17.7645167 L34.3035306,3.0825345 C34.8897731,2.49629201 34.8899986,1.54631902 34.3042122,0.960532586 C33.7143417,0.370662153 32.7683731,0.375051299 32.1822103,0.96121416 L17.500228,15.6431964 Z" id="Combined-Shape"></path>
            </g>
        </g>
    </g>
</svg>