<?xml version="1.0" encoding="UTF-8" standalone="no"?>
<svg width="599px" height="169px" viewBox="0 0 599 169" version="1.1" xmlns="http://www.w3.org/2000/svg" xmlns:xlink="http://www.w3.org/1999/xlink">
    <!-- Generator: Sketch 39.1 (31720) - http://www.bohemiancoding.com/sketch -->
    <title>Group</title>
    <desc>Created with Sketch.</desc>
    <defs></defs>
    <g id="Page-1" stroke="none" stroke-width="1" fill="none" fill-rule="evenodd">
        <g id="logo-black" transform="translate(-1.000000, 0.000000)" fill="#000000">
            <g id="Group-2">
                <g id="Group" transform="translate(1.000000, 0.000000)">
                    <g id="monogram" transform="translate(445.153846, 7.692308)">
                        <path d="M0,76.9230769 C0,32.5525472 34.3627418,0 76.9230769,0 C119.486736,0 153.846154,32.5525472 153.846154,76.9230769 C153.846154,121.070949 119.706137,153.846154 76.9230769,153.846154 C34.1400173,153.849579 0,121.074375 0,76.9230769 L0,76.9230769 Z M16.9230769,77.0512821 C16.9230769,110.504734 43.7698281,137.179487 77.0512821,137.179487 C110.329409,137.179487 137.179487,110.504734 137.179487,77.0512821 C137.179487,43.5978298 110.332736,16.9230769 77.0512821,16.9230769 C43.7698281,16.926436 16.9230769,43.6011889 16.9230769,77.0512821 L16.9230769,77.0512821 Z" id="Shape"></path>
                        <path d="M79.4871795,74.4871795 L79.540597,74.019765 C80.9995631,60.2544071 92.7313862,49.7142094 106.833612,49.4938568 L107.307692,49.4871795 L107.254275,49.9579327 C105.79197,63.7166132 94.060147,74.2568109 79.96126,74.4805021 L79.4871795,74.4871795 L79.4871795,74.4871795 Z" id="Shape"></path>
                        <path d="M46.6666667,74.4871795 L46.7200842,74.019765 C48.1790502,60.2544071 59.9108734,49.7142094 74.013099,49.4938568 L74.4871795,49.4871795 L74.433762,49.9579327 C72.9714573,63.7166132 61.2396342,74.2568109 47.1407472,74.4805021 L46.6666667,74.4871795 L46.6666667,74.4871795 Z" id="Shape" transform="translate(60.576923, 61.987179) scale(-1, 1) translate(-60.576923, -61.987179) "></path>
                        <path d="M79.4871795,104.487179 L79.540597,104.019765 C80.9995631,90.2544071 92.7313862,79.7142094 106.833612,79.4938568 L107.307692,79.4871795 L107.254275,79.9579327 C105.79197,93.7166132 94.060147,104.256811 79.96126,104.480502 L79.4871795,104.487179 L79.4871795,104.487179 Z" id="Shape" transform="translate(93.397436, 91.987179) scale(1, -1) translate(-93.397436, -91.987179) "></path>
                        <path d="M46.6666667,104.487179 L46.7200842,104.019765 C48.1790502,90.2544071 59.9108734,79.7142094 74.013099,79.4938568 L74.4871795,79.4871795 L74.433762,79.9579327 C72.9714573,93.7166132 61.2396342,104.256811 47.1407472,104.480502 L46.6666667,104.487179 L46.6666667,104.487179 Z" id="Shape" transform="translate(60.576923, 91.987179) scale(-1, -1) translate(-60.576923, -91.987179) "></path>
                        <path d="M76.8248902,111.589907 C72.1341968,111.589907 68.4615385,107.921545 68.4615385,103.230851 C68.4615385,98.6217723 72.2158114,94.8717949 76.8248902,94.8717949 C81.433969,94.8717949 85.1839465,98.6217723 85.1839465,103.230851 C85.1839465,107.83993 81.4382645,111.589907 76.8248902,111.589907 L76.8248902,111.589907 Z" id="Shape"></path>
                        <path d="M77.0534226,58.974359 C72.4597074,58.974359 68.7179487,55.2359212 68.7179487,50.6410256 C68.7179487,45.9647666 72.3783648,42.3076923 77.0534226,42.3076923 C81.6471379,42.3076923 85.3846154,46.0461301 85.3846154,50.6410256 C85.3846154,55.2359212 81.651419,58.974359 77.0534226,58.974359 L77.0534226,58.974359 Z" id="Shape"></path>
                    </g>
                    <path d="M51.3846154,161.538462 L68.4615385,161.538462 L68.4615385,95.3076923 L119.461538,7.61538462 L99.6153846,7.61538462 L59.9230769,76.3846154 L20.6923077,7.61538462 L0.846153846,7.61538462 L51.3846154,95.3076923 L51.3846154,161.538462 Z M244.076923,161.538462 L263,161.538462 L194,0.230769231 L123.153846,161.538462 L142.076923,161.538462 L160.538462,118.153846 L226.076923,118.153846 L244.076923,161.538462 Z M167.230769,102 L193.538462,40.3846154 L219.384615,102 L167.230769,102 Z M301.769231,161.538462 L301.769231,42.6923077 L421.769231,168.461538 L421.769231,7.61538462 L404.692308,7.61538462 L404.692308,126.923077 L284.692308,1.15384615 L284.692308,161.538462 L301.769231,161.538462 Z" id="YAN"></path>
                </g>
            </g>
        </g>
    </g>
</svg>