<?xml version="1.0" encoding="UTF-8" standalone="no"?>
<svg width="600px" height="238px" viewBox="0 0 600 238" version="1.1" xmlns="http://www.w3.org/2000/svg" xmlns:xlink="http://www.w3.org/1999/xlink">
    <!-- Generator: Sketch 39.1 (31720) - http://www.bohemiancoding.com/sketch -->
    <title>logo-black</title>
    <desc>Created with Sketch.</desc>
    <defs></defs>
    <g id="Page-1" stroke="none" stroke-width="1" fill="none" fill-rule="evenodd">
        <g id="logo-black" fill="#FFFFFF">
            <g id="Group-2">
                <g id="Group" transform="translate(1.000000, 0.000000)">
                    <g id="monogram" transform="translate(445.153846, 7.692308)">
                        <path d="M0,76.9230769 C0,32.5525472 34.3627418,0 76.9230769,0 C119.486736,0 153.846154,32.5525472 153.846154,76.9230769 C153.846154,121.070949 119.706137,153.846154 76.9230769,153.846154 C34.1400173,153.849579 0,121.074375 0,76.9230769 L0,76.9230769 Z M16.9230769,77.0512821 C16.9230769,110.504734 43.7698281,137.179487 77.0512821,137.179487 C110.329409,137.179487 137.179487,110.504734 137.179487,77.0512821 C137.179487,43.5978298 110.332736,16.9230769 77.0512821,16.9230769 C43.7698281,16.926436 16.9230769,43.6011889 16.9230769,77.0512821 L16.9230769,77.0512821 Z" id="Shape"></path>
                        <path d="M79.4871795,74.4871795 L79.540597,74.019765 C80.9995631,60.2544071 92.7313862,49.7142094 106.833612,49.4938568 L107.307692,49.4871795 L107.254275,49.9579327 C105.79197,63.7166132 94.060147,74.2568109 79.96126,74.4805021 L79.4871795,74.4871795 L79.4871795,74.4871795 Z" id="Shape"></path>
                        <path d="M46.6666667,74.4871795 L46.7200842,74.019765 C48.1790502,60.2544071 59.9108734,49.7142094 74.013099,49.4938568 L74.4871795,49.4871795 L74.433762,49.9579327 C72.9714573,63.7166132 61.2396342,74.2568109 47.1407472,74.4805021 L46.6666667,74.4871795 L46.6666667,74.4871795 Z" id="Shape" transform="translate(60.576923, 61.987179) scale(-1, 1) translate(-60.576923, -61.987179) "></path>
                        <path d="M79.4871795,104.487179 L79.540597,104.019765 C80.9995631,90.2544071 92.7313862,79.7142094 106.833612,79.4938568 L107.307692,79.4871795 L107.254275,79.9579327 C105.79197,93.7166132 94.060147,104.256811 79.96126,104.480502 L79.4871795,104.487179 L79.4871795,104.487179 Z" id="Shape" transform="translate(93.397436, 91.987179) scale(1, -1) translate(-93.397436, -91.987179) "></path>
                        <path d="M46.6666667,104.487179 L46.7200842,104.019765 C48.1790502,90.2544071 59.9108734,79.7142094 74.013099,79.4938568 L74.4871795,79.4871795 L74.433762,79.9579327 C72.9714573,93.7166132 61.2396342,104.256811 47.1407472,104.480502 L46.6666667,104.487179 L46.6666667,104.487179 Z" id="Shape" transform="translate(60.576923, 91.987179) scale(-1, -1) translate(-60.576923, -91.987179) "></path>
                        <path d="M76.8248902,111.589907 C72.1341968,111.589907 68.4615385,107.921545 68.4615385,103.230851 C68.4615385,98.6217723 72.2158114,94.8717949 76.8248902,94.8717949 C81.433969,94.8717949 85.1839465,98.6217723 85.1839465,103.230851 C85.1839465,107.83993 81.4382645,111.589907 76.8248902,111.589907 L76.8248902,111.589907 Z" id="Shape"></path>
                        <path d="M77.0534226,58.974359 C72.4597074,58.974359 68.7179487,55.2359212 68.7179487,50.6410256 C68.7179487,45.9647666 72.3783648,42.3076923 77.0534226,42.3076923 C81.6471379,42.3076923 85.3846154,46.0461301 85.3846154,50.6410256 C85.3846154,55.2359212 81.651419,58.974359 77.0534226,58.974359 L77.0534226,58.974359 Z" id="Shape"></path>
                    </g>
                    <path d="M51.3846154,161.538462 L68.4615385,161.538462 L68.4615385,95.3076923 L119.461538,7.61538462 L99.6153846,7.61538462 L59.9230769,76.3846154 L20.6923077,7.61538462 L0.846153846,7.61538462 L51.3846154,95.3076923 L51.3846154,161.538462 Z M244.076923,161.538462 L263,161.538462 L194,0.230769231 L123.153846,161.538462 L142.076923,161.538462 L160.538462,118.153846 L226.076923,118.153846 L244.076923,161.538462 Z M167.230769,102 L193.538462,40.3846154 L219.384615,102 L167.230769,102 Z M301.769231,161.538462 L301.769231,42.6923077 L421.769231,168.461538 L421.769231,7.61538462 L404.692308,7.61538462 L404.692308,126.923077 L284.692308,1.15384615 L284.692308,161.538462 L301.769231,161.538462 Z" id="YAN"></path>
                </g>
                <path d="M0.615384615,234.177719 L7.77718833,234.177719 C14.0901857,234.177719 17.4854111,232.851459 20.7214854,230.092838 C23.2679045,227.917772 26.928382,223.938992 26.928382,216.511936 C26.928382,210.145889 24.1167109,205.636605 20.8806366,202.931034 C16.4244032,199.164456 11.3846154,198.793103 7.83023873,198.793103 L0.615384615,198.793103 L0.615384615,234.177719 Z M4.54111406,202.506631 L7.98938992,202.506631 C16.9549072,202.506631 22.8965517,208.023873 22.8965517,216.511936 C22.8965517,221.551724 20.7745358,225.05305 18.1220159,227.281167 C14.6737401,230.145889 10.801061,230.464191 7.98938992,230.464191 L4.54111406,230.464191 L4.54111406,202.506631 Z M114.037135,198.793103 L95.6816976,198.793103 L95.6816976,234.177719 L114.037135,234.177719 L114.037135,230.464191 L99.6074271,230.464191 L99.6074271,216.724138 L113.612732,216.724138 L113.612732,213.01061 L99.6074271,213.01061 L99.6074271,202.506631 L114.037135,202.506631 L114.037135,198.793103 Z M213.267905,203.72679 C212.472149,202.188329 211.251989,200.755968 209.819629,199.801061 C208.068966,198.633952 206.318302,198.209549 204.143236,198.209549 C198.413793,198.209549 194.222812,201.870027 194.222812,207.334218 C194.222812,209.986737 195.124668,211.6313 196.66313,213.116711 C198.254642,214.655172 200.005305,215.397878 201.384615,216.034483 L204.567639,217.519894 C206.424403,218.3687 207.803714,219.005305 208.811671,219.960212 C210.084881,221.127321 210.562334,222.506631 210.562334,224.098143 C210.562334,227.65252 208.281167,231.100796 203.453581,231.100796 C201.649867,231.100796 199.899204,230.676393 198.360743,229.137931 C197.352785,228.076923 196.503979,226.485411 196.238727,224.628647 L192.419098,225.689655 C192.896552,227.811671 193.95756,230.251989 195.708223,231.949602 C198.148541,234.33687 201.066313,234.814324 203.400531,234.814324 C209.766578,234.814324 214.594164,230.464191 214.594164,223.938992 C214.594164,221.392573 213.851459,219.323607 212.047745,217.519894 C210.562334,216.034483 208.65252,215.079576 206.583554,214.177719 L203.188329,212.692308 C201.862069,212.108753 200.535809,211.525199 199.474801,210.464191 C198.519894,209.562334 198.148541,208.766578 198.148541,207.387268 C198.148541,204.098143 200.588859,201.923077 204.090186,201.923077 C206.106101,201.923077 207.37931,202.612732 208.068966,203.143236 C208.864721,203.779841 209.660477,204.840849 210.137931,205.795756 L213.267905,203.72679 Z M296.769231,197.307692 L296.769231,232.692308 L300.69496,232.692308 L300.69496,197.307692 L296.769231,197.307692 Z M399.262599,220.119363 L409.766578,220.119363 C409.660477,222.34748 408.970822,224.045093 408.334218,225.159151 C406.318302,228.713528 402.233422,231.100796 397.511936,231.100796 C390.827586,231.100796 383.135279,226.220159 383.135279,216.564987 C383.135279,208.342175 389.076923,201.923077 397.618037,201.923077 C401.862069,201.923077 404.514589,203.514589 406.212202,204.893899 C407.37931,205.848806 408.546419,207.122016 409.554377,208.554377 L412.472149,205.901857 C411.464191,204.522546 409.97878,202.931034 408.387268,201.710875 C404.938992,199.058355 400.960212,198.209549 397.564987,198.209549 C387.007958,198.209549 379.103448,206.220159 379.103448,216.511936 C379.103448,226.803714 386.954907,234.814324 397.458886,234.814324 C405.575597,234.814324 409.554377,229.880637 410.615385,228.448276 C412.843501,225.424403 414.01061,221.180371 414.01061,217.254642 L414.01061,216.405836 L399.262599,216.405836 L399.262599,220.119363 Z M486.689655,234.177719 L486.689655,206.856764 L514.275862,235.769231 L514.275862,198.793103 L510.350133,198.793103 L510.350133,226.220159 L482.763926,197.307692 L482.763926,234.177719 L486.689655,234.177719 Z M598.387268,202.824934 C597.591512,201.286472 596.371353,199.854111 594.938992,198.899204 C593.188329,197.732095 591.437666,197.307692 589.262599,197.307692 C583.533156,197.307692 579.342175,200.96817 579.342175,206.432361 C579.342175,209.084881 580.244032,210.729443 581.782493,212.214854 C583.374005,213.753316 585.124668,214.496021 586.503979,215.132626 L589.687003,216.618037 C591.543767,217.466844 592.923077,218.103448 593.931034,219.058355 C595.204244,220.225464 595.681698,221.604775 595.681698,223.196286 C595.681698,226.750663 593.400531,230.198939 588.572944,230.198939 C586.769231,230.198939 585.018568,229.774536 583.480106,228.236074 C582.472149,227.175066 581.623342,225.583554 581.35809,223.72679 L577.538462,224.787798 C578.015915,226.909814 579.076923,229.350133 580.827586,231.047745 C583.267905,233.435013 586.185676,233.912467 588.519894,233.912467 C594.885942,233.912467 599.713528,229.562334 599.713528,223.037135 C599.713528,220.490716 598.970822,218.421751 597.167109,216.618037 C595.681698,215.132626 593.771883,214.177719 591.702918,213.275862 L588.307692,211.790451 C586.981432,211.206897 585.655172,210.623342 584.594164,209.562334 C583.639257,208.660477 583.267905,207.864721 583.267905,206.485411 C583.267905,203.196286 585.708223,201.02122 589.209549,201.02122 C591.225464,201.02122 592.498674,201.710875 593.188329,202.241379 C593.984085,202.877984 594.779841,203.938992 595.257294,204.893899 L598.387268,202.824934 Z" id="DESIGNS"></path>
                <rect id="Rectangle-2" x="0" y="176.923077" width="600" height="3.84615385"></rect>
            </g>
        </g>
    </g>
</svg>