<?xml version="1.0" encoding="UTF-8" standalone="no"?>
<svg width="47px" height="46px" viewBox="0 0 47 46" version="1.1" xmlns="http://www.w3.org/2000/svg" xmlns:xlink="http://www.w3.org/1999/xlink">
    <!-- Generator: Sketch 3.8.3 (29802) - http://www.bohemiancoding.com/sketch -->
    <title>yano-designs-logo</title>
    <desc>Created with Sketch.</desc>
    <defs></defs>
    <g id="Page-1" stroke="none" stroke-width="1" fill="none" fill-rule="evenodd">
        <g id="yano-designs-logo" fill="#000000">
            <g id="Group">
                <path d="M0.655,22.786 C0.655,9.833 10.992,0.33 23.795,0.33 C36.599,0.33 46.935,9.833 46.935,22.786 C46.935,35.674 36.665,45.242 23.795,45.242 C10.925,45.243 0.655,35.675 0.655,22.786 L0.655,22.786 Z M5.723,22.786 C5.723,32.745 13.792,40.686 23.795,40.686 C33.797,40.686 41.867,32.745 41.867,22.786 C41.867,12.827 33.798,4.886 23.795,4.886 C13.792,4.887 5.723,12.828 5.723,22.786 L5.723,22.786 Z" id="Shape"></path>
                <g transform="translate(15.000000, 13.000000)" id="Shape">
                    <g transform="translate(0.000000, 1.000000)">
                        <path d="M0.315,0.983 C0.386,4.769 3.829,7.9 8.287,8.289 C8.216,4.504 4.774,1.372 0.315,0.983 L0.315,0.983 Z"></path>
                        <path d="M8.415,8.426 L8.276,8.414 C3.738,8.017 0.261,4.823 0.189,0.984 L0.186,0.845 L0.325,0.857 C4.863,1.254 8.34,4.448 8.412,8.287 L8.415,8.426 L8.415,8.426 Z M0.444,1.12 C0.593,4.728 3.873,7.719 8.159,8.151 C8.009,4.543 4.73,1.553 0.444,1.12 L0.444,1.12 Z"></path>
                    </g>
                    <g transform="translate(0.000000, 10.000000)">
                        <path d="M0.235,7.384 C4.407,7.32 7.859,4.196 8.288,0.151 C4.116,0.215 0.664,3.339 0.235,7.384 L0.235,7.384 Z"></path>
                        <path d="M0.095,7.511 L0.111,7.37 C0.549,3.248 4.063,0.091 8.286,0.025 L8.428,0.023 L8.412,0.163 C7.975,4.286 4.461,7.443 0.237,7.509 L0.095,7.511 L0.095,7.511 Z M8.147,0.278 C4.163,0.408 0.859,3.374 0.376,7.256 C4.361,7.126 7.664,4.16 8.147,0.278 L8.147,0.278 Z"></path>
                    </g>
                    <g transform="translate(9.000000, 10.000000)">
                        <path d="M8.171,7.457 C8.1,3.671 4.657,0.54 0.199,0.151 C0.27,3.935 3.713,7.067 8.171,7.457 L8.171,7.457 Z"></path>
                        <path d="M8.299,7.593 L8.16,7.581 C3.623,7.185 0.146,3.992 0.073,0.152 L0.07,0.013 L0.209,0.025 C4.747,0.421 8.224,3.615 8.296,7.454 L8.299,7.593 L8.299,7.593 Z M0.327,0.288 C0.477,3.897 3.757,6.887 8.042,7.318 C7.893,3.71 4.614,0.72 0.327,0.288 L0.327,0.288 Z"></path>
                    </g>
                    <g transform="translate(9.000000, 1.000000)">
                        <path d="M8.251,1.056 C4.079,1.12 0.627,4.244 0.198,8.289 C4.37,8.224 7.822,5.101 8.251,1.056 L8.251,1.056 Z"></path>
                        <path d="M0.059,8.416 L0.075,8.276 C0.512,4.153 4.026,0.996 8.25,0.93 L8.392,0.928 L8.376,1.069 C7.938,5.19 4.424,8.347 0.201,8.414 L0.059,8.416 L0.059,8.416 Z M8.111,1.184 C4.126,1.314 0.822,4.28 0.34,8.161 C4.324,8.03 7.627,5.065 8.111,1.184 L8.111,1.184 Z"></path>
                    </g>
                    <g transform="translate(6.000000, 15.000000)">
                        <path d="M2.783,0.805 C1.916,0.805 1.211,1.51 1.211,2.376 C1.211,3.257 1.902,3.947 2.783,3.947 C3.65,3.947 4.355,3.242 4.355,2.376 C4.355,1.51 3.65,0.805 2.783,0.805 L2.783,0.805 Z"></path>
                        <path d="M2.783,4.322 C1.691,4.322 0.836,3.468 0.836,2.376 C0.836,1.303 1.71,0.43 2.783,0.43 C3.856,0.43 4.729,1.303 4.729,2.376 C4.729,3.449 3.857,4.322 2.783,4.322 L2.783,4.322 Z M2.783,1.18 C2.123,1.18 1.586,1.717 1.586,2.376 C1.586,3.047 2.112,3.572 2.783,3.572 C3.442,3.572 3.979,3.035 3.979,2.376 C3.979,1.717 3.443,1.18 2.783,1.18 L2.783,1.18 Z"></path>
                    </g>
                    <g transform="translate(6.000000, 0.000000)">
                        <path d="M2.743,0.626 C1.862,0.626 1.171,1.316 1.171,2.198 C1.171,3.064 1.876,3.769 2.743,3.769 C3.61,3.769 4.315,3.064 4.315,2.198 C4.315,1.331 3.61,0.626 2.743,0.626 L2.743,0.626 Z"></path>
                        <path d="M2.743,4.144 C1.67,4.144 0.796,3.271 0.796,2.198 C0.796,1.106 1.651,0.252 2.743,0.252 C3.816,0.252 4.689,1.125 4.689,2.198 C4.689,3.271 3.817,4.144 2.743,4.144 L2.743,4.144 Z M2.743,1.001 C2.072,1.001 1.546,1.526 1.546,2.197 C1.546,2.856 2.083,3.393 2.743,3.393 C3.402,3.393 3.939,2.856 3.939,2.197 C3.939,1.538 3.403,1.001 2.743,1.001 L2.743,1.001 Z"></path>
                    </g>
                </g>
            </g>
        </g>
    </g>
</svg>