<svg xmlns="http://www.w3.org/2000/svg" viewBox="0 0 423 80">
    <g fill="none" fill-rule="evenodd">
        <path fill="#052119" d="M0,40 C0,16.9273245 17.8686257,0 40,0 C62.1331028,0 80,16.9273245 80,40 C80,62.9568935 62.2471911,80 40,80 C17.7528089,80.0017812 0,62.9586748 0,40 Z M8.8,40.0666667 C8.8,57.4624619 22.7603107,71.3333333 40.0666667,71.3333333 C57.3712927,71.3333333 71.3333333,57.4624619 71.3333333,40.0666667 C71.3333333,22.6708715 57.3730227,8.8 40.0666667,8.8 C22.7603107,8.80174675 8.8,22.6726183 8.8,40.0666667 Z M40.9721739,38.3211467 L41,38.0776684 C41.76,30.9072336 47.8713044,25.4167988 55.2173913,25.3020163 L55.4643479,25.298538 L55.4365217,25.5437553 C54.6747827,32.7107119 48.5634783,38.2011467 41.2191304,38.3176684 L40.9721739,38.3211467 Z M39.1588405,38.355942 L39.1310144,38.1124637 C38.3710144,30.9420289 32.2597101,25.4515943 24.9136232,25.3368116 L24.6666667,25.3333333 L24.6944927,25.5785507 C25.4562319,32.7455072 31.5675361,38.235942 38.911884,38.3524637 L39.1588405,38.355942 Z M40.9333333,41.0666668 L40.9611595,41.3101451 C41.7211595,48.4805799 47.8324637,53.9710145 55.1785507,54.0857972 L55.4255072,54.0892755 L55.3976812,53.8440581 C54.635942,46.6771016 48.5246377,41.1866668 41.1802899,41.0701451 L40.9333333,41.0666668 Z M39.0255072,41.0666668 L38.9976811,41.3101451 C38.2376811,48.4805799 32.1263768,53.9710145 24.7802899,54.0857972 L24.5333333,54.0892755 L24.5611593,53.8440581 C25.3228985,46.6771016 31.4342028,41.1866668 38.7785507,41.0701451 L39.0255072,41.0666668 Z M40.0011168,58.8615344 C37.5619563,58.8615344 35.6521739,56.9539857 35.6521739,54.5148252 C35.6521739,52.1181043 37.6043959,50.168116 40.0011168,50.168116 C42.3978379,50.168116 44.3478261,52.1181043 44.3478261,54.5148252 C44.3478261,56.9115461 42.4000715,58.8615344 40.0011168,58.8615344 Z M40.0677797,29.7333333 C37.6790479,29.7333333 35.7333333,27.7893456 35.7333333,25.4 C35.7333333,22.9683453 37.6367497,21.0666667 40.0677797,21.0666667 C42.4565117,21.0666667 44.4,23.0106544 44.4,25.4 C44.4,27.7893456 42.4587379,29.7333333 40.0677797,29.7333333 Z" id="monogram" />
        <path fill="#052119" d="M106.51 56.55V42.78L96 24.54h4.13l8.16 14.3 8.25-14.3h4.13l-10.6 18.24v13.77h-3.56zm40.08 0l-3.74-9.02h-13.63l-3.84 9.02h-3.94L136.18 23l14.35 33.55h-3.94zm-15.98-12.38h10.85l-5.38-12.82-5.47 12.82zm27.98 12.38h-3.55V23.2L180 49.35V24.54h3.55v33.45L158.6 31.83v24.72zm48.15.58c-9.27 0-16.66-7.06-16.66-16.56 0-9.55 7.44-16.56 16.66-16.56 9.21 0 16.65 7 16.65 16.56 0 9.5-7.39 16.56-16.65 16.56zm0-29.76c-7.2 0-13.01 5.85-13.01 13.2 0 7.34 5.8 13.2 13 13.2s13.01-5.86 13.01-13.2c0-7.35-5.8-13.2-13-13.2zm34.36 29.18V24.54h6.53c3.22 0 7.78.33 11.81 3.74 2.93 2.45 5.47 6.53 5.47 12.29 0 6.72-3.31 10.32-5.61 12.29-2.93 2.5-6 3.7-11.72 3.7h-6.48zm3.56-28.65v25.3h3.12c2.54 0 6.04-.3 9.16-2.89 2.4-2.01 4.32-5.18 4.32-9.74 0-7.68-5.37-12.67-13.48-12.67h-3.12zm43.39-3.36v3.36h-13.06v9.5h12.67v3.36H275v12.43h13.06v3.36h-16.61V24.54h16.6zM311.7 29l-2.83 1.87a7.71 7.71 0 0 0-1.87-2.4 5.76 5.76 0 0 0-3.6-1.1c-3.17 0-5.38 1.97-5.38 4.94 0 1.25.34 1.97 1.2 2.79.96.96 2.16 1.48 3.36 2.01l3.07 1.35c1.88.81 3.6 1.68 4.95 3.02a7.7 7.7 0 0 1 2.3 5.8c0 5.91-4.37 9.85-10.13 9.85-2.1 0-4.75-.43-6.96-2.6a11.6 11.6 0 0 1-2.97-5.66l3.45-.96c.24 1.68 1.01 3.12 1.92 4.08a6.12 6.12 0 0 0 4.61 1.78c4.37 0 6.43-3.12 6.43-6.34 0-1.44-.43-2.69-1.58-3.74-.91-.87-2.16-1.44-3.84-2.21l-2.88-1.34c-1.25-.58-2.83-1.25-4.27-2.64a6.65 6.65 0 0 1-2.21-5.24c0-4.94 3.8-8.25 8.98-8.25 1.96 0 3.55.38 5.13 1.44 1.3.86 2.4 2.16 3.12 3.55zm7.73-4.46h3.55v32.01h-3.55V24.54zm28.32 19.3v-3.37h13.34v.77c0 3.55-1.05 7.4-3.07 10.13a14.36 14.36 0 0 1-11.9 5.76c-9.5 0-16.61-7.25-16.61-16.56 0-9.31 7.15-16.56 16.7-16.56 3.08 0 6.68.77 9.8 3.17a19.6 19.6 0 0 1 3.7 3.79l-2.65 2.4a16.91 16.91 0 0 0-3.02-3.31 11.75 11.75 0 0 0-7.78-2.7c-7.73 0-13.1 5.82-13.1 13.26 0 8.73 6.96 13.15 13 13.15 4.28 0 7.97-2.16 9.8-5.38.57-1 1.2-2.54 1.3-4.56h-9.51zm23.42 12.71h-3.55V23.2l24.96 26.16V24.54h3.55v33.45l-24.96-26.16v24.72zM421.54 29l-2.84 1.87a7.71 7.71 0 0 0-1.87-2.4 5.76 5.76 0 0 0-3.6-1.1c-3.17 0-5.37 1.97-5.37 4.94 0 1.25.33 1.97 1.2 2.79.96.96 2.16 1.48 3.36 2.01l3.07 1.35c1.87.81 3.6 1.68 4.94 3.02a7.7 7.7 0 0 1 2.3 5.8c0 5.91-4.36 9.85-10.12 9.85-2.11 0-4.75-.43-6.96-2.6a11.6 11.6 0 0 1-2.98-5.66l3.46-.96c.24 1.68 1 3.12 1.92 4.08a6.12 6.12 0 0 0 4.6 1.78c4.37 0 6.44-3.12 6.44-6.34 0-1.44-.43-2.69-1.59-3.74-.9-.87-2.16-1.44-3.84-2.21l-2.88-1.34c-1.24-.58-2.83-1.25-4.27-2.64a6.65 6.65 0 0 1-2.2-5.24c0-4.94 3.79-8.25 8.97-8.25 1.97 0 3.55.38 5.14 1.44 1.3.86 2.4 2.16 3.12 3.55z"/>
    </g>
</svg>