<?xml version="1.0" encoding="utf-8"?>
<!-- Generator: Adobe Illustrator 19.1.0, SVG Export Plug-In . SVG Version: 6.00 Build 0)  -->
<!DOCTYPE svg PUBLIC "-//W3C//DTD SVG 1.1//EN" "http://www.w3.org/Graphics/SVG/1.1/DTD/svg11.dtd">
<svg version="1.1" id="Logo_Mark" xmlns="http://www.w3.org/2000/svg" xmlns:xlink="http://www.w3.org/1999/xlink" x="0px" y="0px"
	 viewBox="0 0 46.3 44.9" style="enable-background:new 0 0 46.3 44.9;" xml:space="preserve">
<g>
	<path d="M0,22.5C0,9.5,10.3,0,23.1,0s23.1,9.5,23.1,22.5c0,12.9-10.3,22.5-23.1,22.5C10.3,44.9,0,35.3,0,22.5z M5.1,22.5
		c0,10,8.1,17.9,18.1,17.9c10,0,18.1-7.9,18.1-17.9S33.1,4.6,23.1,4.6C13.1,4.6,5.1,12.5,5.1,22.5z"/>
</g>
<g>
	<g>
		<path d="M14.7,14.7c0.1,3.8,3.5,6.9,8,7.3C22.6,18.2,19.1,15,14.7,14.7z"/>
		<path d="M22.8,22.1l-0.1,0c-4.5-0.4-8-3.6-8.1-7.4l0-0.1l0.1,0c4.5,0.4,8,3.6,8.1,7.4L22.8,22.1z M14.8,14.8
			c0.1,3.6,3.4,6.6,7.7,7C22.4,18.2,19.1,15.2,14.8,14.8z"/>
	</g>
	<g>
		<path d="M14.6,30.1c4.2-0.1,7.6-3.2,8.1-7.2C18.5,22.9,15,26,14.6,30.1z"/>
		<path d="M14.4,30.2l0-0.1c0.4-4.1,4-7.3,8.2-7.3l0.1,0l0,0.1c-0.4,4.1-4,7.3-8.2,7.3L14.4,30.2z M22.5,22.9c-4,0.1-7.3,3.1-7.8,7
			C18.7,29.8,22,26.8,22.5,22.9z"/>
	</g>
	<g>
		<path d="M31.5,30.1c-0.1-3.8-3.5-6.9-8-7.3C23.6,26.6,27.1,29.7,31.5,30.1z"/>
		<path d="M31.6,30.3l-0.1,0c-4.5-0.4-8-3.6-8.1-7.4l0-0.1l0.1,0c4.5,0.4,8,3.6,8.1,7.4L31.6,30.3z M23.7,23c0.2,3.6,3.4,6.6,7.7,7
			C31.2,26.4,28,23.4,23.7,23z"/>
	</g>
	<g>
		<path d="M31.6,14.7c-4.2,0.1-7.6,3.2-8.1,7.2C27.7,21.9,31.2,18.8,31.6,14.7z"/>
		<path d="M23.4,22.1l0-0.1c0.4-4.1,4-7.3,8.2-7.3l0.1,0l0,0.1c-0.4,4.1-4,7.3-8.2,7.3L23.4,22.1z M31.5,14.9c-4,0.1-7.3,3.1-7.8,7
			C27.7,21.7,31,18.7,31.5,14.9z"/>
	</g>
	<g>
		<path d="M23.1,28.5c-0.9,0-1.6,0.7-1.6,1.6c0,0.9,0.7,1.6,1.6,1.6c0.9,0,1.6-0.7,1.6-1.6C24.7,29.2,24,28.5,23.1,28.5z"/>
		<path d="M23.1,32c-1.1,0-1.9-0.9-1.9-1.9c0-1.1,0.9-1.9,1.9-1.9s1.9,0.9,1.9,1.9S24.2,32,23.1,32z M23.1,28.8
			c-0.7,0-1.2,0.5-1.2,1.2c0,0.7,0.5,1.2,1.2,1.2c0.7,0,1.2-0.5,1.2-1.2S23.8,28.8,23.1,28.8z"/>
	</g>
	<g>
		<path d="M23.1,13.3c-0.9,0-1.6,0.7-1.6,1.6c0,0.9,0.7,1.6,1.6,1.6s1.6-0.7,1.6-1.6C24.7,14,24,13.3,23.1,13.3z"/>
		<path d="M23.1,16.8c-1.1,0-1.9-0.9-1.9-1.9c0-1.1,0.9-1.9,1.9-1.9c1.1,0,1.9,0.9,1.9,1.9S24.2,16.8,23.1,16.8z M23.1,13.7
			c-0.7,0-1.2,0.5-1.2,1.2c0,0.7,0.5,1.2,1.2,1.2c0.7,0,1.2-0.5,1.2-1.2S23.7,13.7,23.1,13.7z"/>
	</g>
</g>
</svg>
