<?xml version="1.0" encoding="iso-8859-1"?>
<!-- Generator: Adobe Illustrator 19.1.0, SVG Export Plug-In . SVG Version: 6.00 Build 0)  -->
<svg version="1.1" id="Layer_1" xmlns="http://www.w3.org/2000/svg" xmlns:xlink="http://www.w3.org/1999/xlink" x="0px" y="0px"
	 viewBox="0 0 197.076 65.155" style="enable-background:new 0 0 197.076 65.155;" xml:space="preserve">
<g>
	<g>
		<path d="M1.072,58.326h1.426c0.702,0,1.698,0.071,2.579,0.799c0.639,0.521,1.194,1.393,1.194,2.621
			c0,1.434-0.723,2.201-1.227,2.621c-0.639,0.532-1.31,0.788-2.558,0.788H1.072V58.326z M1.849,64.438h0.681
			c0.556,0,1.321-0.062,2.003-0.614c0.523-0.43,0.943-1.105,0.943-2.078c0-1.639-1.175-2.703-2.946-2.703H1.849V64.438z"/>
		<path d="M18.666,59.043h-2.851v2.027h2.767v0.717h-2.767v2.651h2.851v0.717h-3.627v-6.829h3.627V59.043z"/>
		<path d="M30.557,59.677c-0.095-0.185-0.252-0.39-0.409-0.512c-0.136-0.103-0.388-0.235-0.786-0.235
			c-0.691,0-1.174,0.419-1.174,1.054c0,0.267,0.073,0.42,0.262,0.594c0.21,0.205,0.472,0.317,0.734,0.431l0.671,0.286
			c0.408,0.175,0.786,0.358,1.079,0.646c0.356,0.348,0.504,0.747,0.504,1.239c0,1.259-0.954,2.099-2.212,2.099
			c-0.462,0-1.038-0.093-1.521-0.553c-0.346-0.328-0.556-0.799-0.649-1.209l0.755-0.204c0.052,0.358,0.22,0.665,0.419,0.87
			c0.304,0.297,0.65,0.379,1.006,0.379c0.954,0,1.405-0.666,1.405-1.352c0-0.308-0.095-0.573-0.346-0.799
			c-0.199-0.185-0.472-0.307-0.839-0.471l-0.629-0.287c-0.272-0.122-0.619-0.266-0.934-0.562c-0.304-0.287-0.481-0.604-0.481-1.116
			c0-1.055,0.828-1.761,1.96-1.761c0.43,0,0.775,0.081,1.122,0.307c0.282,0.185,0.523,0.461,0.681,0.758L30.557,59.677z"/>
		<path d="M40.98,58.326v6.829h-0.776v-6.829H40.98z"/>
		<path d="M53.729,61.725h2.914v0.163c0,0.758-0.23,1.577-0.671,2.161c-0.21,0.276-0.996,1.229-2.6,1.229
			c-2.076,0-3.627-1.546-3.627-3.532s1.562-3.532,3.647-3.532c0.671,0,1.457,0.163,2.139,0.676c0.314,0.235,0.608,0.542,0.808,0.809
			l-0.577,0.512c-0.199-0.276-0.43-0.522-0.66-0.706c-0.336-0.267-0.859-0.573-1.698-0.573c-1.688,0-2.861,1.238-2.861,2.825
			c0,1.863,1.52,2.806,2.841,2.806c0.933,0,1.739-0.461,2.138-1.146c0.126-0.216,0.263-0.543,0.283-0.973h-2.075V61.725z"/>
		<path d="M65.41,65.155v-7.116l5.451,5.58v-5.293h0.775v7.137l-5.45-5.58v5.272H65.41z"/>
		<path d="M80.226,61.408h1.897v-1.762h0.755v1.762h1.897v0.676h-1.897v1.761h-0.755v-1.761h-1.897V61.408z"/>
		<path d="M95.189,58.326v6.112h1.929v0.717h-2.705v-6.829H95.189z"/>
		<path d="M110.411,63.23h-2.977l-0.839,1.925h-0.859l3.218-7.157l3.135,7.157h-0.859L110.411,63.23z M110.108,62.513l-1.174-2.733
			l-1.195,2.733H110.108z"/>
		<path d="M124.473,59.677c-0.095-0.185-0.252-0.39-0.409-0.512c-0.136-0.103-0.388-0.235-0.786-0.235
			c-0.691,0-1.174,0.419-1.174,1.054c0,0.267,0.073,0.42,0.262,0.594c0.21,0.205,0.472,0.317,0.734,0.431l0.671,0.286
			c0.408,0.175,0.786,0.358,1.079,0.646c0.356,0.348,0.504,0.747,0.504,1.239c0,1.259-0.954,2.099-2.212,2.099
			c-0.462,0-1.038-0.093-1.521-0.553c-0.346-0.328-0.556-0.799-0.649-1.209l0.755-0.204c0.052,0.358,0.22,0.665,0.419,0.87
			c0.304,0.297,0.65,0.379,1.006,0.379c0.954,0,1.405-0.666,1.405-1.352c0-0.308-0.095-0.573-0.346-0.799
			c-0.199-0.185-0.472-0.307-0.839-0.471l-0.629-0.287c-0.272-0.122-0.619-0.266-0.934-0.562c-0.304-0.287-0.481-0.604-0.481-1.116
			c0-1.055,0.828-1.761,1.96-1.761c0.43,0,0.775,0.081,1.122,0.307c0.282,0.185,0.523,0.461,0.681,0.758L124.473,59.677z"/>
		<path d="M138.795,59.043h-2.851v2.027h2.767v0.717h-2.767v2.651h2.851v0.717h-3.627v-6.829h3.627V59.043z"/>
		<path d="M149.733,58.326c0.472,0,1.174,0.03,1.698,0.379c0.408,0.266,0.765,0.788,0.765,1.516c0,1.044-0.702,1.812-1.761,1.884
			l2.223,3.051h-0.943l-2.129-2.989h-0.199v2.989h-0.775v-6.829H149.733z M149.386,61.49h0.493c0.965,0,1.541-0.451,1.541-1.249
			c0-0.379-0.115-0.758-0.556-1.004c-0.314-0.174-0.671-0.194-1.006-0.194h-0.473V61.49z"/>
		<path d="M167.61,59.831c-0.221-0.215-0.556-0.471-0.912-0.635c-0.367-0.164-0.797-0.266-1.206-0.266
			c-1.614,0-2.809,1.27-2.809,2.846c0,1.854,1.54,2.785,2.819,2.785c0.472,0,0.933-0.133,1.3-0.317
			c0.398-0.194,0.682-0.45,0.808-0.573v0.941c-0.776,0.543-1.583,0.666-2.107,0.666c-2.075,0-3.616-1.536-3.616-3.512
			c0-2.038,1.562-3.553,3.658-3.553c0.419,0,1.227,0.051,2.065,0.676V59.831z"/>
		<path d="M178.2,62.513c0,0.573,0,1.198,0.555,1.659c0.283,0.235,0.766,0.389,1.153,0.389s0.87-0.153,1.153-0.389
			c0.556-0.461,0.556-1.086,0.556-1.659v-4.188h0.775v4.393c0,0.573-0.062,1.126-0.44,1.638c-0.419,0.563-1.152,0.922-2.044,0.922
			c-0.891,0-1.625-0.358-2.044-0.922c-0.377-0.512-0.44-1.064-0.44-1.638v-4.393h0.776V62.513z"/>
		<path d="M194.306,59.043v6.112h-0.776v-6.112h-1.698v-0.717h4.173v0.717H194.306z"/>
	</g>
	<g>
		<rect y="50.814" width="197.076" height="0.75"/>
		<path d="M71.388,33.146H52.515L47.199,45.34h-5.449L62.151,0l19.87,45.34h-5.449L71.388,33.146z M69.461,28.605l-7.443-17.319
			l-7.575,17.319H69.461z"/>
		<path d="M96.992,45.34V0.259l34.556,35.351V2.076h4.917v45.211L101.91,11.935V45.34H96.992z"/>
		<path d="M15.065,26.07L0,0.554h5.916l11.694,20.009L29.443,0.554h5.916L20.156,26.07V45.34h-5.09V26.07z"/>
		<g>
			<g>
				<path d="M150.133,23.261c0-12.908,10.301-22.378,23.06-22.378s23.06,9.47,23.06,22.378c0,12.843-10.235,22.378-23.06,22.378
					C160.367,45.64,150.133,36.105,150.133,23.261z M155.183,23.261c0,9.924,8.041,17.838,18.01,17.838
					c9.968,0,18.009-7.914,18.009-17.838s-8.041-17.838-18.009-17.838C163.224,5.424,155.183,13.337,155.183,23.261z"/>
			</g>
		</g>
		<g>
			<path d="M164.742,15.485c0.071,3.773,3.502,6.893,7.945,7.281C172.615,18.994,169.185,15.873,164.742,15.485z"/>
			<path d="M164.662,30.832c4.158-0.064,7.597-3.177,8.025-7.208C168.529,23.689,165.09,26.801,164.662,30.832z"/>
			<path d="M181.539,30.905c-0.071-3.773-3.502-6.893-7.945-7.281C173.666,27.396,177.096,30.517,181.539,30.905z"/>
			<path d="M181.619,15.557c-4.158,0.064-7.597,3.177-8.025,7.208C177.752,22.701,181.191,19.588,181.619,15.557z"/>
			<path style="stroke:#000000;stroke-miterlimit:10;" d="M173.181,29.259c-0.864,0-1.566,0.702-1.566,1.566
				c0,0.878,0.688,1.566,1.566,1.566c0.864,0,1.566-0.703,1.566-1.566C174.747,29.961,174.044,29.259,173.181,29.259z"/>
			<path style="stroke:#000000;stroke-miterlimit:10;" d="M173.141,14.132c-0.878,0-1.566,0.688-1.566,1.566
				c0,0.863,0.702,1.566,1.566,1.566s1.566-0.703,1.566-1.566C174.707,14.835,174.004,14.132,173.141,14.132z"/>
		</g>
	</g>
</g>
</svg>
