<?xml version="1.0" encoding="iso-8859-1"?>
<!-- Generator: Adobe Illustrator 19.1.0, SVG Export Plug-In . SVG Version: 6.00 Build 0)  -->
<svg version="1.1" id="Layer_1" xmlns="http://www.w3.org/2000/svg" xmlns:xlink="http://www.w3.org/1999/xlink" x="0px" y="0px"
	 viewBox="0 0 197.762 71.879" style="enable-background:new 0 0 197.762 71.879;" xml:space="preserve">
<g>
	<rect x="0" y="50.437" width="197.762" height="0.75"/>
	<path d="M71.637,32.705H52.698l-5.335,12.237h-5.468L62.367-0.556l19.939,45.498h-5.468L71.637,32.705z M69.702,28.149
		L62.234,10.77l-7.602,17.379H69.702z"/>
	<path d="M97.33,44.942V-0.296l34.676,35.474V1.527h4.935v45.368l-34.676-35.474v33.522H97.33z"/>
	<path d="M15.118,25.604L0,0h5.937l11.735,20.079L29.546,0h5.936L20.226,25.604v19.338h-5.108V25.604z"/>
	<g>
		<path d="M7.849,56.255h3.123c1.54,0,3.721,0.157,5.65,1.748c1.401,1.144,2.618,3.049,2.618,5.739c0,3.138-1.585,4.819-2.687,5.739
			c-1.401,1.165-2.871,1.726-5.604,1.726H7.849V56.255z M9.548,69.637h1.493c1.217,0,2.894-0.134,4.386-1.345
			c1.149-0.942,2.068-2.421,2.068-4.551c0-3.587-2.572-5.918-6.454-5.918H9.548V69.637z"/>
		<path d="M46.38,57.824h-6.247v4.438h6.064v1.569h-6.064v5.806h6.247v1.569h-7.947V56.255h7.947V57.824z"/>
		<path d="M72.418,59.213c-0.207-0.404-0.552-0.852-0.896-1.121c-0.299-0.223-0.85-0.515-1.723-0.515
			c-1.516,0-2.572,0.919-2.572,2.309c0,0.583,0.161,0.919,0.574,1.3c0.46,0.449,1.034,0.695,1.607,0.942l1.47,0.627
			c0.897,0.381,1.723,0.785,2.367,1.413c0.78,0.761,1.102,1.636,1.102,2.712c0,2.758-2.09,4.596-4.847,4.596
			c-1.01,0-2.274-0.202-3.33-1.21c-0.758-0.717-1.217-1.749-1.424-2.646l1.653-0.448c0.115,0.784,0.482,1.457,0.919,1.905
			c0.665,0.651,1.424,0.83,2.205,0.83c2.089,0,3.077-1.457,3.077-2.959c0-0.672-0.207-1.255-0.758-1.748
			c-0.436-0.404-1.034-0.672-1.837-1.031l-1.378-0.628c-0.598-0.269-1.355-0.583-2.044-1.233c-0.666-0.628-1.056-1.323-1.056-2.443
			c0-2.31,1.814-3.856,4.294-3.856c0.942,0,1.7,0.179,2.458,0.672c0.62,0.404,1.149,1.009,1.493,1.659L72.418,59.213z"/>
		<path d="M95.241,56.255v14.951h-1.7V56.255H95.241z"/>
		<path d="M123.163,63.697h6.385v0.359c0,1.659-0.506,3.452-1.47,4.73c-0.46,0.605-2.182,2.69-5.696,2.69
			c-4.548,0-7.947-3.385-7.947-7.734s3.422-7.734,7.993-7.734c1.47,0,3.193,0.359,4.686,1.48c0.689,0.515,1.332,1.188,1.768,1.771
			l-1.263,1.121c-0.436-0.606-0.942-1.144-1.446-1.547c-0.735-0.582-1.883-1.255-3.721-1.255c-3.698,0-6.271,2.713-6.271,6.187
			c0,4.08,3.331,6.142,6.225,6.142c2.044,0,3.813-1.009,4.685-2.511c0.275-0.471,0.574-1.189,0.62-2.13h-4.548V63.697z"/>
		<path d="M148.74,71.206V55.627l11.944,12.217V56.255h1.699v15.625L150.44,59.662v11.544H148.74z"/>
		<path d="M189.246,59.213c-0.207-0.404-0.551-0.852-0.896-1.121c-0.298-0.223-0.85-0.515-1.723-0.515
			c-1.515,0-2.572,0.919-2.572,2.309c0,0.583,0.161,0.919,0.574,1.3c0.46,0.449,1.034,0.695,1.608,0.942l1.47,0.627
			c0.896,0.381,1.723,0.785,2.366,1.413c0.781,0.761,1.102,1.636,1.102,2.712c0,2.758-2.09,4.596-4.846,4.596
			c-1.011,0-2.274-0.202-3.331-1.21c-0.758-0.717-1.217-1.749-1.424-2.646l1.654-0.448c0.115,0.784,0.482,1.457,0.918,1.905
			c0.666,0.651,1.424,0.83,2.205,0.83c2.09,0,3.078-1.457,3.078-2.959c0-0.672-0.207-1.255-0.758-1.748
			c-0.436-0.404-1.033-0.672-1.837-1.031l-1.378-0.628c-0.597-0.269-1.355-0.583-2.044-1.233c-0.666-0.628-1.056-1.323-1.056-2.443
			c0-2.31,1.815-3.856,4.295-3.856c0.942,0,1.699,0.179,2.458,0.672c0.619,0.404,1.149,1.009,1.492,1.659L189.246,59.213z"/>
	</g>
	<g>
		<path d="M150.655,22.786c0-12.953,10.337-22.456,23.14-22.456c12.804,0,23.14,9.503,23.14,22.456
			c0,12.888-10.27,22.456-23.14,22.456C160.925,45.243,150.655,35.675,150.655,22.786z M155.723,22.786
			c0,9.959,8.069,17.9,18.072,17.9c10.002,0,18.072-7.941,18.072-17.9s-8.069-17.9-18.072-17.9
			C163.792,4.887,155.723,12.828,155.723,22.786z"/>
	</g>
	<g>
		<g>
			<path d="M165.315,14.983c0.071,3.786,3.514,6.917,7.972,7.306C173.216,18.504,169.774,15.372,165.315,14.983z"/>
			<path d="M173.415,22.426l-0.139-0.012c-4.538-0.397-8.015-3.591-8.087-7.43l-0.003-0.139l0.139,0.012
				c4.538,0.397,8.015,3.591,8.087,7.43L173.415,22.426z M165.444,15.12c0.149,3.608,3.429,6.599,7.715,7.031
				C173.009,18.543,169.73,15.553,165.444,15.12z"/>
		</g>
		<g>
			<path d="M165.235,30.384c4.172-0.064,7.624-3.188,8.053-7.233C169.116,23.215,165.664,26.339,165.235,30.384z"/>
			<path d="M165.095,30.511l0.016-0.141c0.438-4.122,3.952-7.279,8.175-7.345l0.142-0.002l-0.016,0.14
				c-0.437,4.123-3.951,7.28-8.175,7.346L165.095,30.511z M173.147,23.278c-3.984,0.13-7.288,3.096-7.771,6.978
				C169.361,30.126,172.664,27.16,173.147,23.278z"/>
		</g>
		<g>
			<path d="M182.171,30.457c-0.071-3.786-3.514-6.917-7.972-7.306C174.27,26.935,177.713,30.067,182.171,30.457z"/>
			<path d="M182.299,30.593l-0.139-0.012c-4.537-0.396-8.014-3.589-8.087-7.429l-0.003-0.139l0.139,0.012
				c4.538,0.396,8.015,3.59,8.087,7.429L182.299,30.593z M174.327,23.288c0.15,3.609,3.43,6.599,7.715,7.03
				C181.893,26.71,178.614,23.72,174.327,23.288z"/>
		</g>
		<g>
			<path d="M182.251,15.056c-4.172,0.064-7.624,3.188-8.053,7.233C178.37,22.224,181.822,19.101,182.251,15.056z"/>
			<path d="M174.059,22.416l0.016-0.14c0.437-4.123,3.951-7.28,8.175-7.346l0.142-0.002l-0.016,0.141
				c-0.438,4.121-3.952,7.278-8.175,7.345L174.059,22.416z M182.111,15.184c-3.985,0.13-7.289,3.096-7.771,6.977
				C178.324,22.03,181.627,19.065,182.111,15.184z"/>
		</g>
		<g>
			<path d="M173.783,28.805c-0.867,0-1.572,0.705-1.572,1.571c0,0.881,0.691,1.571,1.572,1.571c0.867,0,1.572-0.705,1.572-1.571
				C175.355,29.51,174.65,28.805,173.783,28.805z"/>
			<path d="M173.783,32.322c-1.092,0-1.947-0.854-1.947-1.946c0-1.073,0.874-1.946,1.947-1.946s1.946,0.873,1.946,1.946
				S174.857,32.322,173.783,32.322z M173.783,29.18c-0.66,0-1.197,0.537-1.197,1.196c0,0.671,0.526,1.196,1.197,1.196
				c0.659,0,1.196-0.537,1.196-1.196S174.443,29.18,173.783,29.18z"/>
		</g>
		<g>
			<path d="M173.743,13.626c-0.881,0-1.572,0.69-1.572,1.572c0,0.866,0.705,1.571,1.572,1.571s1.572-0.705,1.572-1.571
				C175.315,14.331,174.61,13.626,173.743,13.626z"/>
			<path d="M173.743,17.144c-1.073,0-1.947-0.873-1.947-1.946c0-1.092,0.855-1.946,1.947-1.946c1.073,0,1.946,0.873,1.946,1.946
				S174.817,17.144,173.743,17.144z M173.743,14.001c-0.671,0-1.197,0.525-1.197,1.196c0,0.659,0.537,1.196,1.197,1.196
				c0.659,0,1.196-0.537,1.196-1.196S174.403,14.001,173.743,14.001z"/>
		</g>
	</g>
</g>
</svg>
