<svg xmlns="http://www.w3.org/2000/svg" viewBox="0 0 48 48"><g fill="none" fill-rule="evenodd"><circle cx="24" cy="24" r="24" fill="#8ECEAC"/><path fill="#FFFFFF" d="M18.23 10.08c1.5-.06 1.97-.08 5.77-.08s4.28.02 5.77.08c1.5.07 2.51.3 3.4.66.92.35 1.7.83 2.48 1.61a6.86 6.86 0 0 1 1.62 2.48c.34.89.58 1.9.65 3.4.06 1.5.08 1.97.08 5.77s-.02 4.28-.08 5.77c-.07 1.5-.3 2.51-.65 3.4-.36.92-.84 1.7-1.62 2.48a6.86 6.86 0 0 1-2.48 1.62c-.89.34-1.9.58-3.4.65-1.5.06-1.97.08-5.77.08s-4.28-.02-5.77-.08c-1.5-.07-2.51-.3-3.4-.65a6.86 6.86 0 0 1-2.48-1.62 6.86 6.86 0 0 1-1.61-2.48c-.35-.89-.59-1.9-.66-3.4-.06-1.5-.08-1.97-.08-5.77s.02-4.28.08-5.77c.07-1.5.3-2.51.66-3.4.35-.92.83-1.7 1.61-2.48a6.86 6.86 0 0 1 2.48-1.61c.89-.35 1.9-.59 3.4-.66zm11.43 2.52a97.16 97.16 0 0 0-5.66-.08c-3.74 0-4.18.02-5.66.08-1.36.07-2.1.3-2.6.49-.65.25-1.12.55-1.6 1.04-.5.5-.8.96-1.05 1.61-.2.5-.42 1.24-.49 2.6a97.16 97.16 0 0 0-.08 5.66c0 3.74.02 4.18.08 5.66.07 1.36.3 2.1.49 2.6.25.65.55 1.12 1.04 1.6.5.5.96.8 1.61 1.05.5.2 1.24.42 2.6.49 1.48.06 1.92.08 5.66.08s4.18-.02 5.66-.08a7.75 7.75 0 0 0 2.6-.49 4.34 4.34 0 0 0 1.6-1.04c.5-.5.8-.96 1.05-1.61.2-.5.42-1.24.49-2.6.06-1.48.08-1.92.08-5.66s-.02-4.18-.08-5.66a7.75 7.75 0 0 0-.49-2.6 4.34 4.34 0 0 0-1.04-1.6c-.5-.5-.96-.8-1.61-1.05-.5-.2-1.24-.42-2.6-.49zM24 16.81a7.19 7.19 0 1 1 0 14.38 7.19 7.19 0 0 1 0-14.38zm0 11.86a4.67 4.67 0 1 0 0-9.34 4.67 4.67 0 0 0 0 9.34zm9.15-12.14a1.68 1.68 0 1 1-3.36 0 1.68 1.68 0 0 1 3.36 0z"/></g></svg>